<?xml version="1.0" encoding="utf-8"?>
<!-- Generator: Adobe Illustrator 16.0.0, SVG Export Plug-In . SVG Version: 6.00 Build 0)  -->
<!DOCTYPE svg PUBLIC "-//W3C//DTD SVG 1.1//EN" "http://www.w3.org/Graphics/SVG/1.1/DTD/svg11.dtd">
<svg version="1.1" id="Layer_1" xmlns="http://www.w3.org/2000/svg" xmlns:xlink="http://www.w3.org/1999/xlink" x="0px" y="0px"
	 width="500px" height="500px" viewBox="0 0 500 500" enable-background="new 0 0 500 500" xml:space="preserve">
<g>
	<path fill="none" d="M350,350c-66.729,0-133.357,0-200,0c0-66.656,0-133.314,0-200c66.661,0,133.337,0,200,0
		C350,216.647,350,283.323,350,350z M211.619,260.663c0.42,0.373,0.599,0.523,0.769,0.685c2.429,2.294,4.729,2.527,7.499,0.646
		c2.844-1.935,3.186-4.937,2.885-7.942c-0.288-2.877-1.629-5.219-4.669-6.203c-2.532-0.82-4.427,0.146-6.102,1.931
		c-0.052,0.056-0.229-0.005-0.468-0.017c0-0.565,0-1.13,0-1.676c-0.685,0-1.248,0-1.829,0c0,6.925,0,13.748,0,20.58
		c0.647,0.17,1.208,0.201,1.916-0.047C211.619,266.088,211.619,263.536,211.619,260.663z M312.05,249.511
		c-0.49-0.292-0.866-0.504-1.232-0.733c-3.577-2.238-6.879-1.22-8.438,2.726c-1.169,2.962-1.03,5.917,0.469,8.79
		c1.514,2.897,6.34,4.298,8.809,0.972c0.113-0.153,0.147-0.312,0.37-0.292c0.04,0.572,0.08,1.146,0.119,1.718
		c0.678,0.115,1.248,0.196,1.859-0.055c0-6.843,0-13.668,0-20.532c-0.689-0.129-1.305-0.312-1.956,0.177
		C312.05,244.637,312.05,247.005,312.05,249.511z M276.165,251.962c0.92-0.013,1.822,0.316,2.26-0.631
		c0.978-2.113,2.838-1.897,4.577-1.646c1.141,0.167,2.234,0.736,2.262,2.216c0.023,1.381-1.097,1.714-2.04,2.05
		c-1.444,0.513-2.974,0.78-4.431,1.265c-1.951,0.65-3.365,2.752-3.135,4.489c0.211,1.59,2.133,3.308,3.972,3.475
		c2.456,0.223,4.371-0.809,5.969-2.596c0.05,0.85,0.398,1.695,1.165,2.266c0.767,0.571,1.716,0.661,2.286-0.124
		c0.464-0.634,0.591-1.466-0.745-1.617c-0.664-0.075-0.658-0.874-0.647-1.498c0.022-1.332,0.024-2.665,0.002-3.998
		c-0.026-1.589,0.191-3.249-0.194-4.749c-0.636-2.466-4.48-3.985-7.334-3.159C277.331,248.514,276.146,249.745,276.165,251.962z
		 M263.651,255.368c0-0.332,0.032-0.668-0.007-0.997c-0.543-4.695-4.515-8.252-9.54-6.24c-3.052,1.222-4.847,6.001-3.79,9.549
		c1.223,4.103,3.319,5.173,6.067,5.488C260.652,263.658,263.955,259.36,263.651,255.368z M196.713,262.347c0-5.007,0-9.838,0-14.683
		c-0.667-0.069-1.238-0.215-1.902,0.134c0,2.898,0.054,5.816-0.017,8.734c-0.061,2.482-2.283,4.368-4.852,4.255
		c-1.741-0.075-2.335-1.088-2.335-3.972c0-3.043,0-6.087,0-9.139c-0.895-0.091-1.596-0.213-2.402,0.094
		c0,3.523,0.057,7.04-0.017,10.555c-0.066,3.204,2.676,5.113,5.836,4.363c1.266-0.302,2.431-0.887,3.275-1.961
		c0.087-0.11,0.301-0.118,0.608-0.228c0,0.688,0,1.255,0,1.848C195.559,262.347,196.083,262.347,196.713,262.347z M235.325,242.029
		c0,7.018,0,13.831,0,20.654c0.656,0.126,1.219,0.205,1.79-0.033c0-6.9,0-13.766,0-20.621
		C236.474,242.029,235.955,242.029,235.325,242.029z"/>
	<path fill-rule="evenodd" clip-rule="evenodd" fill="#010101" d="M211.619,260.663c0,2.873,0,5.425,0,7.955
		c-0.708,0.248-1.269,0.217-1.916,0.047c0-6.832,0-13.655,0-20.58c0.581,0,1.144,0,1.829,0c0,0.546,0,1.111,0,1.676
		c0.238,0.012,0.416,0.073,0.468,0.017c1.675-1.785,3.57-2.751,6.102-1.931c3.04,0.984,4.382,3.326,4.669,6.203
		c0.301,3.006-0.041,6.008-2.885,7.942c-2.769,1.882-5.069,1.648-7.499-0.646C212.218,261.187,212.039,261.036,211.619,260.663z
		 M220.459,255.439c-0.045-2.044-0.563-3.856-2.121-5.03c-2.591-1.95-5.576-0.409-6.617,3.286c-0.787,2.794,0.931,6.67,3.288,7.421
		c2.096,0.665,4.5-1.133,5.292-4.017C220.455,256.537,220.418,255.923,220.459,255.439z"/>
	<path fill-rule="evenodd" clip-rule="evenodd" fill="#010101" d="M312.05,249.511c0-2.506,0-4.874,0-7.229
		c0.651-0.488,1.267-0.306,1.956-0.177c0,6.864,0,13.689,0,20.532c-0.611,0.251-1.182,0.17-1.859,0.055
		c-0.039-0.572-0.079-1.146-0.119-1.718c-0.223-0.02-0.257,0.139-0.37,0.292c-2.469,3.326-7.295,1.926-8.809-0.972
		c-1.499-2.873-1.638-5.828-0.469-8.79c1.559-3.945,4.86-4.963,8.438-2.726C311.184,249.007,311.56,249.22,312.05,249.511z
		 M312.035,255.246c0.382-0.977-0.136-1.949-0.438-2.79c-0.49-1.354-1.323-2.706-3.068-2.865c-1.59-0.146-2.641,0.523-3.471,1.941
		c-1.405,2.399-1.228,4.845-0.332,7.228c0.554,1.472,1.691,2.617,3.594,2.44c1.626-0.153,2.688-1.123,3.172-2.495
		C311.864,257.648,312.308,256.498,312.035,255.246z"/>
	<path fill-rule="evenodd" clip-rule="evenodd" fill="#010101" d="M276.165,251.962c-0.02-2.217,1.166-3.448,3.966-4.257
		c2.854-0.826,6.698,0.693,7.334,3.159c0.386,1.5,0.168,3.16,0.194,4.749c0.022,1.333,0.021,2.666-0.002,3.998
		c-0.011,0.624-0.017,1.423,0.647,1.498c1.336,0.151,1.209,0.983,0.745,1.617c-0.57,0.785-1.52,0.695-2.286,0.124
		c-0.767-0.57-1.115-1.416-1.165-2.266c-1.598,1.787-3.513,2.818-5.969,2.596c-1.839-0.167-3.761-1.885-3.972-3.475
		c-0.23-1.737,1.184-3.839,3.135-4.489c1.457-0.484,2.986-0.752,4.431-1.265c0.943-0.336,2.063-0.669,2.04-2.05
		c-0.027-1.48-1.121-2.049-2.262-2.216c-1.739-0.252-3.6-0.468-4.577,1.646C277.987,252.278,277.085,251.949,276.165,251.962z
		 M285.197,254.424c-1.578,1.348-3.567,1.433-5.365,2.065c-1.659,0.585-2.591,2.126-2.108,3.277
		c0.479,1.146,2.558,1.822,3.965,1.179C284.244,259.776,285.747,258.633,285.197,254.424z"/>
	<path fill-rule="evenodd" clip-rule="evenodd" fill="#010101" d="M263.651,255.368c0.304,3.992-2.999,8.29-7.27,7.801
		c-2.748-0.315-4.845-1.386-6.067-5.488c-1.057-3.548,0.738-8.328,3.79-9.549c5.025-2.012,8.997,1.545,9.54,6.24
		C263.684,254.7,263.651,255.036,263.651,255.368z M261.308,254.945c0.135-0.631-0.29-1.65-0.757-2.647
		c-1.481-3.171-4.786-3.681-7.116-1.111c-1.781,1.965-1.902,6.055-0.241,8.135c1.836,2.297,4.257,2.536,6.242,0.688
		C260.775,258.763,261.205,257.203,261.308,254.945z"/>
	<path fill-rule="evenodd" clip-rule="evenodd" fill="#010101" d="M196.713,262.347c-0.63,0-1.155,0-1.806,0
		c0-0.593,0-1.159,0-1.848c-0.307,0.109-0.521,0.117-0.608,0.228c-0.844,1.074-2.009,1.659-3.275,1.961
		c-3.16,0.75-5.902-1.159-5.836-4.363c0.074-3.516,0.017-7.032,0.017-10.555c0.806-0.307,1.507-0.185,2.402-0.094
		c0,3.052,0,6.096,0,9.139c0,2.884,0.595,3.896,2.335,3.972c2.568,0.113,4.791-1.772,4.852-4.255
		c0.071-2.918,0.017-5.836,0.017-8.734c0.664-0.349,1.235-0.203,1.902-0.134C196.713,252.509,196.713,257.34,196.713,262.347z"/>
	<path fill-rule="evenodd" clip-rule="evenodd" fill="#010101" d="M235.325,242.029c0.63,0,1.149,0,1.79,0
		c0,6.855,0,13.721,0,20.621c-0.57,0.238-1.133,0.159-1.79,0.033C235.325,255.86,235.325,249.047,235.325,242.029z"/>
	<path fill-rule="evenodd" clip-rule="evenodd" fill="none" d="M220.459,255.439c-0.042,0.483-0.005,1.098-0.158,1.66
		c-0.791,2.884-3.196,4.682-5.292,4.017c-2.357-0.751-4.075-4.627-3.288-7.421c1.041-3.695,4.025-5.236,6.617-3.286
		C219.896,251.583,220.414,253.396,220.459,255.439z"/>
	<path fill-rule="evenodd" clip-rule="evenodd" fill="none" d="M312.035,255.246c0.272,1.252-0.171,2.402-0.544,3.459
		c-0.484,1.372-1.546,2.342-3.172,2.495c-1.902,0.177-3.04-0.969-3.594-2.44c-0.896-2.383-1.073-4.828,0.332-7.228
		c0.83-1.418,1.881-2.087,3.471-1.941c1.745,0.159,2.578,1.511,3.068,2.865C311.899,253.297,312.417,254.27,312.035,255.246z"/>
	<path fill-rule="evenodd" clip-rule="evenodd" fill="none" d="M285.197,254.424c0.55,4.209-0.953,5.353-3.509,6.521
		c-1.407,0.644-3.485-0.032-3.965-1.179c-0.482-1.151,0.449-2.692,2.108-3.277C281.63,255.856,283.619,255.771,285.197,254.424z"/>
	<path fill-rule="evenodd" clip-rule="evenodd" fill="none" d="M261.308,254.945c-0.103,2.258-0.532,3.817-1.872,5.064
		c-1.985,1.848-4.406,1.608-6.242-0.688c-1.661-2.08-1.54-6.17,0.241-8.135c2.33-2.569,5.635-2.06,7.116,1.111
		C261.018,253.295,261.442,254.314,261.308,254.945z"/>
</g>
<circle fill="none" stroke="#000000" stroke-width="2" stroke-miterlimit="10" cx="250" cy="250" r="245"/>
</svg>
