<?xml version="1.0" encoding="utf-8"?>
<!-- Generator: Adobe Illustrator 16.0.0, SVG Export Plug-In . SVG Version: 6.00 Build 0)  -->
<!DOCTYPE svg PUBLIC "-//W3C//DTD SVG 1.1//EN" "http://www.w3.org/Graphics/SVG/1.1/DTD/svg11.dtd">
<svg version="1.1" id="Layer_1" xmlns="http://www.w3.org/2000/svg" xmlns:xlink="http://www.w3.org/1999/xlink" x="0px" y="0px"
	 width="500px" height="500px" viewBox="0 0 500 500" enable-background="new 0 0 500 500" xml:space="preserve">
<g>
	<g>
		<path fill="none" d="M1,501C1,334.333,1,167.667,1,1c166.667,0,333.333,0,500,0c0,166.667,0,333.333,0,500
			C334.333,501,167.667,501,1,501z M326.391,152.519c-3.092-3.145-3.682-0.156-4.589,1.228
			c-11.765,17.921-23.47,35.88-35.197,53.825c-4.894,7.487-9.806,14.961-14.694,22.42c-3.949-1.878-7.472-3.452-11.486-4.389
			c-10.725-2.502-25.281,2.376-31.769,12.023c-5.798,8.622-8.382,17.858-7.621,28.064c0.741,9.932,3.437,19.24,9.861,27.162
			c-17.658,27.053-35.258,54.016-52.814,80.912c2.112,2.76,3.051,1.161,4.121-0.494c3.968-6.14,7.992-12.243,11.991-18.362
			c12.184-18.641,24.347-37.296,36.587-55.9c0.929-1.411,1.65-4.574,4.267-2.362c7.782,6.578,16.465,7.076,26.096,5.493
			c11.657-1.916,22.062-14.196,22.626-27.052c-3.646,0-7.521-0.767-10.843,0.258c-2.402,0.74-1.939,4.778-3.161,7.094
			c-7.599,14.393-23.882,13.289-30.124,2.899c9.493-14.519,19.024-29.095,29.406-44.972c1.465,11.028,8.475,8.721,15.054,8.422
			c-2.065-6.567-4.425-12.484-9.557-16.863C291.958,205.254,309.121,178.968,326.391,152.519z M29.041,289.568
			c1.897,2.318,2.901,4.072,4.367,5.254c14.625,11.79,32.601,9.168,42.357-5.79c10.453-16.024,10.122-33.372,0.631-50.048
			c-6.957-12.223-22.869-17.854-35.786-11.229c-4.4,2.257-8.132,5.178-11.902,9.858c0-4.309,0-7.396,0-10.286
			c-3.769,0-7.172,0-10.391,0c0,35.062,0,69.795,0,104.346c3.73,0,7.137,0,10.723,0C29.041,317.744,29.041,304.139,29.041,289.568z
			 M401.156,245c-0.974-6.47-2.8-11.705-8.614-15.109c-9.602-5.622-19.812-6.151-30.135-3.531
			c-9.832,2.496-16.363,10.178-15.412,19.651c0.923,9.19,7.448,13.658,14.886,16.861c6.597,2.841,13.778,4.351,20.311,7.311
			c7.552,3.423,10.374,6.583,9.833,12.377c-0.447,4.785-3.973,7.9-11.319,9.43c-15.36,3.196-23.03-1.138-25.202-13.765
			c-3.446,0-6.891,0-10.793,0c1.306,7.53,2.898,14.349,9.67,18.854c13.22,8.796,26.811,7.885,39.889,0.643
			c8.675-4.804,13.034-20.567,3.49-28.645c-5.875-4.973-12.797-7.322-19.658-10.019c-5.505-2.163-11.216-3.762-16.046-7.453
			c-5.881-4.496-5.41-11.191,1.203-14.664c5.053-2.652,10.375-2.243,15.761-1.469c3.908,0.561,8.072,2.066,9.153,5.554
			c1.456,4.694,4.39,3.965,7.57,3.972C397.386,245.003,399.029,245,401.156,245z M467.285,197.11c0,34.873,0,69.273,0,103.599
			c3.697,0,7.103,0,10.43,0c0-34.692,0-69.093,0-103.599C474.143,197.11,470.854,197.11,467.285,197.11z M157.718,300.889
			c0-25.2,0-49.934,0-74.601c-3.694,0-7.1,0-10.436,0c0,25.023,0,49.757,0,74.601C150.852,300.889,154.139,300.889,157.718,300.889z
			 M157.856,197.255c-3.773,0-7.176,0-10.602,0c0,4.33,0,8.4,0,12.49c3.663,0,7.065,0,10.602,0
			C157.856,205.542,157.856,201.592,157.856,197.255z"/>
		<path fill-rule="evenodd" clip-rule="evenodd" fill="#010101" d="M326.391,152.519c-17.27,26.449-34.433,52.735-51.847,79.406
			c5.132,4.378,7.491,10.296,9.557,16.863c-6.579,0.299-13.589,2.606-15.054-8.422c-10.382,15.877-19.913,30.454-29.406,44.972
			c6.241,10.39,22.525,11.493,30.124-2.899c1.222-2.315,0.759-6.354,3.161-7.094c3.322-1.024,7.196-0.258,10.843-0.258
			c-0.563,12.855-10.969,25.136-22.626,27.052c-9.631,1.583-18.314,1.085-26.096-5.493c-2.616-2.212-3.338,0.951-4.267,2.362
			c-12.24,18.604-24.403,37.26-36.587,55.9c-4,6.119-8.023,12.223-11.991,18.362c-1.069,1.655-2.008,3.254-4.121,0.494
			c17.556-26.896,35.156-53.859,52.814-80.912c-6.424-7.922-9.12-17.23-9.861-27.162c-0.761-10.206,1.823-19.442,7.621-28.064
			c6.487-9.647,21.043-14.525,31.769-12.023c4.015,0.937,7.537,2.511,11.486,4.389c4.889-7.458,9.801-14.933,14.694-22.42
			c11.728-17.945,23.433-35.904,35.197-53.825C322.709,152.363,323.299,149.375,326.391,152.519z M237.395,282.902
			c9.778-14.976,19.274-29.521,28.755-44.043c-8.411-6.623-21.191-4.687-27.292,2.912
			C229.648,253.24,229.997,269.706,237.395,282.902z"/>
		<path fill-rule="evenodd" clip-rule="evenodd" fill="#010101" d="M29.041,289.568c0,14.57,0,28.176,0,42.105
			c-3.586,0-6.992,0-10.723,0c0-34.551,0-69.284,0-104.346c3.218,0,6.622,0,10.391,0c0,2.889,0,5.977,0,10.286
			c3.77-4.68,7.501-7.601,11.902-9.858c12.917-6.625,28.829-0.994,35.786,11.229c9.491,16.676,9.822,34.023-0.631,50.048
			c-9.757,14.958-27.732,17.58-42.357,5.79C31.942,293.641,30.938,291.887,29.041,289.568z M28.918,263.559
			c-0.266,6.715,1.699,12.879,5.141,18.398c8.716,13.976,24.341,12.697,32.5,1.152c7.48-10.585,7.507-30.426-1.123-41.045
			c-6.87-8.454-19.675-9.624-27.11-2.12C31.632,246.701,29.347,254.623,28.918,263.559z"/>
		<path fill-rule="evenodd" clip-rule="evenodd" fill="#010101" d="M401.156,245c-2.127,0-3.771,0.003-5.414-0.001
			c-3.181-0.007-6.114,0.722-7.57-3.972c-1.081-3.488-5.245-4.993-9.153-5.554c-5.386-0.773-10.708-1.183-15.761,1.469
			c-6.613,3.473-7.084,10.168-1.203,14.664c4.83,3.691,10.541,5.29,16.046,7.453c6.861,2.696,13.783,5.046,19.658,10.019
			c9.544,8.077,5.185,23.841-3.49,28.645c-13.078,7.242-26.669,8.153-39.889-0.643c-6.771-4.506-8.364-11.324-9.67-18.854
			c3.902,0,7.347,0,10.793,0c2.172,12.627,9.842,16.961,25.202,13.765c7.347-1.529,10.872-4.645,11.319-9.43
			c0.541-5.794-2.281-8.954-9.833-12.377c-6.532-2.96-13.714-4.47-20.311-7.311c-7.438-3.203-13.963-7.671-14.886-16.861
			c-0.951-9.473,5.58-17.155,15.412-19.651c10.322-2.62,20.533-2.09,30.135,3.531C398.356,233.295,400.183,238.53,401.156,245z"/>
		<path fill-rule="evenodd" clip-rule="evenodd" fill="#010101" d="M467.285,197.11c3.569,0,6.857,0,10.43,0
			c0,34.505,0,68.906,0,103.599c-3.327,0-6.732,0-10.43,0C467.285,266.384,467.285,231.983,467.285,197.11z"/>
		<path fill-rule="evenodd" clip-rule="evenodd" fill="#010101" d="M157.718,300.889c-3.579,0-6.866,0-10.436,0
			c0-24.844,0-49.577,0-74.601c3.336,0,6.741,0,10.436,0C157.718,250.955,157.718,275.688,157.718,300.889z"/>
		<path fill-rule="evenodd" clip-rule="evenodd" fill="#010101" d="M157.856,197.255c0,4.336,0,8.287,0,12.49
			c-3.537,0-6.939,0-10.602,0c0-4.089,0-8.16,0-12.49C150.68,197.255,154.083,197.255,157.856,197.255z"/>
		<path fill-rule="evenodd" clip-rule="evenodd" fill="none" d="M237.395,282.902c-7.397-13.196-7.747-29.662,1.462-41.131
			c6.102-7.599,18.881-9.535,27.292-2.912C256.669,253.381,247.172,267.927,237.395,282.902z"/>
		<path fill-rule="evenodd" clip-rule="evenodd" fill="none" d="M28.918,263.559c0.428-8.936,2.713-16.858,9.409-23.614
			c7.436-7.503,20.241-6.333,27.11,2.12c8.629,10.619,8.603,30.46,1.123,41.045c-8.159,11.545-23.785,12.823-32.5-1.152
			C30.618,276.438,28.652,270.273,28.918,263.559z"/>
	</g>
</g>
</svg>
